#!OML:ASF H:\Terrain\Patient Classification 1\PLAYGROUND\JustinFriday\JustinFriday.ASF
:FULLY-SPECIFIED
:DEGREES
257
root -9.89793 13.5283 10.1017 99.9692 -84.0579 -119.602
lowerback 17.0163 1.35816 2.28391
upperback -2.12811 2.58333 2.74321
thorax -11.9914 1.15662 1.03639
lowerneck -2.50511 -0.639714 -3.53913
upperneck 22.747 -2.11922 4.34332
head 7.44452 -1.22335 1.83916
rclavicle -1.15854e-014 -2.46493e-014
rhumerus 113.016 -31.8963 -51.4422
rradius 22.9386
rwrist -355.811
rhand 9.97035 -17.4169
rfingers 7.12502
rthumb 35.0982 -43.95
lclavicle -1.15854e-014 -2.46493e-014
lhumerus 108.404 36.6415 45.6331
lradius 22.983
lwrist 1.3002
lhand 8.80681 -9.11218
lfingers 7.12502
lthumb 33.9938 17.673
rfemur 0.359949 -7.33879 13.33
rtibia 100.201
rfoot 4.64239 2.17392
rtoes -1.62279
lfemur 4.63289 9.43734 4.24777
ltibia 95.8894
lfoot 13.3943 -24.9066
ltoes 9.59061
258
root -10.0493 13.5474 10.1073 98.4508 -84.3815 -118.475
lowerback 16.8342 1.24542 2.08178
upperback -2.12135 2.37207 2.62937
thorax -11.8775 1.06913 1.08484
lowerneck -2.36579 -0.448852 -3.6084
upperneck 22.8443 -1.91431 4.58237
head 7.44412 -1.11739 1.94526
rclavicle 9.25591e-016 2.54817e-014
rhumerus 113.016 -31.6205 -51.6874
rradius 22.8839
rwrist -355.626
rhand 9.8023 -18.0368
rfingers 7.12502
rthumb 34.9388 -44.6071
lclavicle 9.25591e-016 2.54817e-014
lhumerus 107.759 36.9613 44.5792
lradius 22.9267
lwrist 1.61318
lhand 8.32552 -8.9896
lfingers 7.12502
lthumb 33.5365 17.8959
rfemur 0.778687 -7.34393 12.9731
rtibia 100.139
rfoot 6.54401 1.54164
rtoes 0.553546
lfemur 4.81229 8.91742 3.70491
ltibia 95.836
lfoot 18.3109 -23.9396
ltoes 18.1345
259
root -10.1963 13.5693 10.1133 97.5875 -84.5253 -118.085
lowerback 16.8916 1.24766 1.87563
upperback -2.18334 2.34869 2.73712
thorax -11.9954 1.0756 1.32645
lowerneck -2.27419 -0.390365 -3.69341
upperneck 23.0542 -1.83181 4.50518
head 7.49362 -1.09831 1.94159
rclavicle 5.12616e-014 -6.95746e-015
rhumerus 113.05 -31.3409 -51.5097
rradius 22.744
rwrist -355.656
rhand 10.1342 -18.1854
rfingers 7.12502
rthumb 35.2536 -44.6818
lclavicle 5.12616e-014 -6.95746e-015
lhumerus 107.741 36.7546 44.7355
lradius 22.5039
lwrist 1.48551
lhand 8.10912 -9.14936
lfingers 7.12502
lthumb 33.3308 17.7805
rfemur 1.18161 -7.12816 12.8292
rtibia 100.1
rfoot 8.47109 0.932981
rtoes 3.45707
lfemur 5.21114 8.63769 3.428
ltibia 95.7154
lfoot 16.434 -23.0657
ltoes 7.03754
260
root -10.3366 13.5941 10.1132 98.4867 -84.5022 -119.188
lowerback 16.5423 1.19376 2.06589
upperback -2.18535 2.28841 2.59201
thorax -11.7771 1.03145 1.07952
lowerneck -2.46058 -0.44972 -3.90375
upperneck 23.2055 -1.94618 4.72905
head 7.58523 -1.15181 2.04374
rclavicle 1.25359e-014 -2.24875e-015
rhumerus 113.301 -31.1861 -52.03
rradius 22.6568
rwrist -355.442
rhand 10.6003 -18.1842
rfingers 7.12502
rthumb 35.6954 -44.575
lclavicle 1.25359e-014 -2.24875e-015
lhumerus 107.603 36.8304 44.2741
lradius 22.6184
lwrist 1.83814
lhand 8.29841 -8.89882
lfingers 7.12502
lthumb 33.5107 17.9922
rfemur 1.09531 -6.91546 12.9397
rtibia 100.139
rfoot 10.5387 0.188445
rtoes 5.74715
lfemur 5.33936 8.679 3.42305
ltibia 95.6569
lfoot 18.3693 -22.4343
ltoes 8.37774
261
root -10.4713 13.6121 10.1051 98.9013 -84.618 -119.65
lowerback 16.166 1.31306 1.27314
upperback -2.34319 2.32015 2.9687
thorax -11.7865 1.11621 1.94271
lowerneck -2.27138 -0.391165 -3.68637
upperneck 23.3372 -1.75497 4.02321
head 7.58169 -1.10852 1.788
rclavicle -1.963e-014 2.69353e-014
rhumerus 112.511 -31.4421 -50.601
rradius 23.2373
rwrist -356.535
rhand 10.8319 -19.1896
rfingers 7.12502
rthumb 35.915 -45.527
lclavicle -1.963e-014 2.69353e-014
lhumerus 107.592 36.0003 45.4104
lradius 22.569
lwrist 0.25662
lhand 7.42341 -8.64972
lfingers 7.12502
lthumb 32.6786 18.4178
rfemur 0.808995 -6.94547 12.9781
rtibia 100.224
rfoot 12.4401 -0.584822
rtoes 6.70544
lfemur 5.13691 8.68469 3.2778
ltibia 95.7495
lfoot 18.5197 -21.4719
ltoes 3.53361
